<svg width="25" height="25" viewBox="0 0 25 25" fill="none" xmlns="http://www.w3.org/2000/svg">
<path d="M14.5938 10.2361H13.5159C13.5159 9.04387 13.0917 8.61961 11.8994 8.61961V7.54199C13.6845 7.54199 14.5938 8.45129 14.5938 10.2361Z" fill="black"/>
<path d="M16.749 10.2353H15.6714C15.6714 7.83757 14.2974 6.46336 11.8994 6.46336V5.38574C14.8901 5.38574 16.749 7.24479 16.749 10.2353Z" fill="black"/>
<path d="M18.9044 10.2355H17.8268C17.8268 6.69262 15.4423 4.30829 11.8994 4.30829V3.23047C16.0889 3.23047 18.9044 6.04597 18.9044 10.2355Z" fill="black"/>
<path d="M6.51103 24.9999V21.282L5.35921 21.1473C2.60429 20.8104 0.449053 18.5474 0.233372 15.7657C0.112211 14.1221 0.0449219 12.4383 0.0449219 10.7746C0.0449219 9.11093 0.112211 7.43382 0.233372 5.78355C0.449053 3.00179 2.64474 0.731897 5.45354 0.388346C9.73066 -0.129449 14.0546 -0.129449 18.3319 0.388346C21.1472 0.731897 23.3431 3.00179 23.5586 5.78355C23.6866 7.42691 23.7472 9.11093 23.7472 10.7746C23.7472 12.4383 23.6799 14.1221 23.5586 15.7657C23.3498 18.5405 21.1943 20.8037 18.4463 21.1473C16.522 21.3853 14.586 21.5179 12.647 21.5447L6.51103 24.9999ZM11.8993 1.07545C9.78986 1.07584 7.68218 1.20411 5.58812 1.45926C3.28468 1.74223 1.48622 3.59456 1.31119 5.87116C1.18312 7.48769 1.12254 9.13776 1.12254 10.7746C1.12254 12.4113 1.18312 14.0683 1.31119 15.6848C1.48721 17.9566 3.23377 19.793 5.49399 20.0831C6.02816 20.1504 6.5649 20.2088 7.10361 20.2581L7.59536 20.3053V23.1612L12.3642 20.4738H12.4988C14.4445 20.4521 16.3874 20.3216 18.3183 20.0831C20.5613 19.807 22.3124 17.9547 22.4876 15.6915C22.6155 14.075 22.6763 12.418 22.6763 10.7813C22.6763 9.14447 22.6155 7.4944 22.4876 5.87116C22.3124 3.59456 20.5141 1.74223 18.2038 1.45926C16.1119 1.2047 14.0066 1.07644 11.8993 1.07545Z" fill="black"/>
<path d="M14.0142 17.7799H13.5157C8.46409 17.7799 4.35548 13.6713 4.35548 8.61963V8.12117C4.35292 7.2616 4.69489 6.43676 5.30523 5.83116L5.74982 5.38657C6.44343 4.69276 7.65583 4.69276 8.34964 5.38657L9.74397 6.78091C10.0901 7.12466 10.2841 7.59292 10.2827 8.08072C10.2811 8.56813 10.0875 9.03521 9.74397 9.38073L9.61591 9.5088C9.35208 9.77342 9.20428 10.132 9.20506 10.5055C9.20645 10.8789 9.35405 11.2366 9.61591 11.5024L10.6262 12.5128C11.1517 13.0382 12.1013 13.0382 12.6268 12.5128L12.7546 12.3849C13.4484 11.6911 14.6608 11.6911 15.3547 12.3849L16.7488 13.7857C17.4667 14.5038 17.4667 15.6677 16.7488 16.3858L16.3044 16.8303C15.6988 17.4405 14.874 17.7825 14.0142 17.7799ZM7.04963 5.92548C6.84776 5.92509 6.65379 6.005 6.51092 6.14767L6.06633 6.59226C5.65904 6.99659 5.43093 7.54734 5.4331 8.12117V8.61963C5.43685 13.0821 9.05352 16.6985 13.5157 16.7023H14.0142C14.5859 16.7029 15.1338 16.4748 15.5364 16.0692L15.981 15.6247C16.1242 15.4818 16.2046 15.288 16.2046 15.0857C16.2046 14.8835 16.1242 14.6897 15.981 14.5468L14.5936 13.1527C14.2916 12.8652 13.8177 12.8652 13.5157 13.1527L13.3879 13.2806C12.4148 14.2528 10.8382 14.2528 9.86513 13.2806L8.8548 12.2702C8.38891 11.801 8.12745 11.1668 8.12745 10.5055C8.12646 9.84623 8.38812 9.21359 8.8548 8.7477L8.98287 8.61963C9.12475 8.47617 9.20467 8.28259 9.20506 8.08072C9.20546 7.87885 9.12554 7.68488 8.98287 7.54201L7.58854 6.14767C7.44547 6.005 7.2517 5.92509 7.04963 5.92548Z" fill="black"/>
</svg>
