<svg width="53" height="60" viewBox="0 0 53 60" fill="none" xmlns="http://www.w3.org/2000/svg">
<path fill-rule="evenodd" clip-rule="evenodd" d="M36.3839 39.6428L34.3065 42.9022C44.5818 44.1803 49.2187 47.4591 49.2187 49.4531C49.2187 52.3948 40.2758 56.4844 26.3672 56.4844C12.5398 56.4844 3.51562 52.42 3.51562 49.4531C3.51562 47.4591 8.1525 44.1803 18.4275 42.9022L16.3502 39.6429C10.2946 40.5735 0 43.3467 0 49.4531C0 51.6791 1.45289 54.8514 8.37445 57.3233C13.2075 59.0494 19.5974 60 26.3672 60C39.0264 60 52.7344 56.4291 52.7344 49.4531C52.7344 43.3457 42.4519 40.5754 36.3839 39.6428Z" fill="white"/>
<path fill-rule="evenodd" clip-rule="evenodd" d="M36.3839 39.6428C42.7686 29.6241 41.966 30.874 42.15 30.6128C44.4745 27.3341 45.7031 23.4752 45.7031 19.4531C45.7031 8.78672 37.0475 0 26.3672 0C15.7216 0 7.03125 8.76937 7.03125 19.4531C7.03125 23.4727 8.28562 27.4325 10.6863 30.7554L16.3502 39.6429L18.4275 42.9022L24.8848 53.0346C25.2075 53.5411 25.7665 53.8477 26.3671 53.8477C26.9677 53.8477 27.5268 53.541 27.8494 53.0346L34.3065 42.9022L36.3839 39.6428ZM13.5623 28.7329C13.5834 28.7619 13.6036 28.7914 13.6229 28.8217L26.3672 48.819C40.0134 27.4061 39.13 28.7786 39.2993 28.5552C41.1889 25.8793 42.1875 22.7327 42.1875 19.4531C42.1875 10.6651 35.0905 3.51562 26.3672 3.51562C17.6257 3.51562 10.5469 10.662 10.5469 19.4531C10.5469 22.7275 11.5646 25.9846 13.5623 28.7329Z" fill="white"/>
<path fill-rule="evenodd" clip-rule="evenodd" d="M36.3839 39.6428C42.7686 29.6241 41.966 30.874 42.15 30.6128C44.4745 27.3341 45.7031 23.4752 45.7031 19.4531C45.7031 8.78672 37.0475 0 26.3672 0C15.7216 0 7.03125 8.76937 7.03125 19.4531C7.03125 23.4727 8.28562 27.4325 10.6863 30.7554L16.3502 39.6429L18.4275 42.9022L24.8848 53.0346C25.2075 53.5411 25.7665 53.8477 26.3671 53.8477C26.9677 53.8477 27.5268 53.541 27.8494 53.0346L34.3065 42.9022L36.3839 39.6428ZM13.5623 28.7329C13.5834 28.7619 13.6036 28.7914 13.6229 28.8217L26.3672 48.819C40.0134 27.4061 39.13 28.7786 39.2993 28.5552C41.1889 25.8793 42.1875 22.7327 42.1875 19.4531C42.1875 10.6651 35.0905 3.51562 26.3672 3.51562C17.6257 3.51562 10.5469 10.662 10.5469 19.4531C10.5469 22.7275 11.5646 25.9846 13.5623 28.7329Z" fill="#FFC700"/>
<path d="M26.3672 10.6641C21.5209 10.6641 17.5781 14.6068 17.5781 19.4531C17.5781 24.2994 21.5209 28.2422 26.3672 28.2422C31.2135 28.2422 35.1562 24.2994 35.1562 19.4531C35.1562 14.6068 31.2135 10.6641 26.3672 10.6641ZM26.3672 24.7266C23.4594 24.7266 21.0937 22.3609 21.0937 19.4531C21.0937 16.5454 23.4594 14.1797 26.3672 14.1797C29.275 14.1797 31.6406 16.5454 31.6406 19.4531C31.6406 22.3609 29.275 24.7266 26.3672 24.7266Z" fill="white"/>
</svg>
