<svg width="40" height="35" viewBox="0 0 40 35" fill="none" xmlns="http://www.w3.org/2000/svg">
<path fill-rule="evenodd" clip-rule="evenodd" d="M23.8396 0.953335C25.2907 0.32628 26.8555 0.00183147 28.4375 0C31.503 0.00329376 34.4421 1.21702 36.6098 3.37487C38.7774 5.53273 39.9967 8.45846 40 11.5101C40 22.9705 21.4312 34.2193 20.6625 34.661C20.4681 34.7773 20.2456 34.8387 20.0187 34.8387L20 32.1288C23.2313 30.0694 37.5 20.4756 37.5 11.5101C37.5003 9.59212 36.8865 7.72395 35.7477 6.17681C34.609 4.62966 33.0045 3.48407 31.1673 2.90633C29.33 2.3286 27.3557 2.34879 25.5307 2.96398C23.7058 3.57918 22.1253 4.75734 21.0188 6.32745C20.9034 6.49049 20.7503 6.62353 20.5725 6.71537C20.3946 6.8072 20.1972 6.85514 19.9969 6.85514L20 3.64591C21.0817 2.49675 22.3884 1.58039 23.8396 0.953335Z" fill="white"/>
<path d="M20 3.64591C18.4148 1.96176 16.3577 0.790887 14.0956 0.285277C11.8335 -0.220332 9.47097 -0.0373215 7.31469 0.810551C5.15841 1.65842 3.30797 3.132 2.00359 5.03998C0.699212 6.94796 0.00114144 9.20222 0 11.5101C0 22.9705 18.5688 34.2193 19.375 34.661C19.5694 34.7773 19.7919 34.8387 20.0187 34.8387L20 32.1288C16.7687 30.0756 2.5 20.4818 2.5 11.5101C2.5016 9.5938 3.11616 7.72778 4.25459 6.18249C5.39303 4.63719 6.9962 3.49291 8.83177 2.91548C10.6673 2.33806 12.6399 2.35748 14.4636 2.97095C16.2874 3.58441 17.8675 4.76004 18.975 6.32745C19.0904 6.49049 19.2434 6.62353 19.4213 6.71537C19.5991 6.8072 19.7965 6.85514 19.9969 6.85514L20 3.64591Z" fill="white"/>
</svg>
