<svg width="25" height="25" viewBox="0 0 25 25" fill="none" xmlns="http://www.w3.org/2000/svg">
<g clip-path="url(#clip0_11556_18)">
<path fill-rule="evenodd" clip-rule="evenodd" d="M8.75865 16.9116L8.125 16.25L7.62024 15.3076L5.33476 2.8633C5.28452 2.59056 5.09727 2.36303 4.83902 2.26171L1.09578 0.791145C0.683232 0.629627 0.217699 0.832266 0.0556768 1.24431C-0.106065 1.65659 0.096518 2.1224 0.508846 2.28442L3.83718 3.59195L6.163 16.2547C6.2331 16.6353 6.56486 16.9118 6.95207 16.9118H7.33788L6.45689 19.3589C6.38315 19.5639 6.41353 19.7916 6.53902 19.9697C6.66434 20.1478 6.86815 20.2538 7.08573 20.2538H7.70366C7.32076 20.6799 7.08573 21.241 7.08573 21.858C7.08573 23.185 8.16545 24.2644 9.49211 24.2644C10.8188 24.2644 11.8985 23.185 11.8985 21.858C11.8985 21.241 11.6635 20.6799 11.2806 20.2538H16.5271C16.1441 20.6799 15.9091 21.241 15.9091 21.858C15.9091 23.185 16.9885 24.2644 18.3155 24.2644C19.6425 24.2644 20.7219 23.185 20.7219 21.858C20.7219 21.241 20.4869 20.6799 20.1041 20.2538H20.8556C21.2248 20.2538 21.524 19.9545 21.524 19.5854C21.524 19.2161 21.2248 18.9169 20.8556 18.9169H8.03682L8.75865 16.9116ZM8.42263 21.8583C8.42263 22.4482 8.90232 22.9278 9.49217 22.9278C10.082 22.9278 10.5616 22.4482 10.5616 21.8583C10.5616 21.2685 10.082 20.7888 9.49217 20.7888C8.90232 20.7888 8.42263 21.2685 8.42263 21.8583ZM17.246 21.8583C17.246 22.4482 17.7256 22.9278 18.3155 22.9278C18.9053 22.9278 19.385 22.4482 19.385 21.8583C19.385 21.2685 18.9053 20.7888 18.3155 20.7888C17.7256 20.7888 17.246 21.2685 17.246 21.8583Z" fill="white"/>
<path d="M24.8557 5.2232C24.7126 5.0181 24.4823 4.89132 24.2322 4.88063L8.72447 4.21218C8.27952 4.19271 7.9077 4.53623 7.88868 4.9791C7.86977 5.42181 8.21272 5.79587 8.65554 5.81489L23.1134 6.43814L20.2707 15.3076H7.62024L8.125 16.25L8.75865 16.9116H20.8555C21.2044 16.9116 21.513 16.6862 21.6193 16.3544L24.9615 5.92661C25.0382 5.68862 24.9988 5.42841 24.8557 5.2232Z" fill="#FFC700"/>
</g>
<defs>
<clipPath id="clip0_11556_18">
<rect width="25" height="25" fill="white"/>
</clipPath>
</defs>
</svg>
