<svg width="69" height="60" viewBox="0 0 69 60" fill="none" xmlns="http://www.w3.org/2000/svg">
<path fill-rule="evenodd" clip-rule="evenodd" d="M12.0002 58V52H16.0002V56H64.2668V38.6597C65.3558 36.6065 67.6803 31.6 68.2668 28V58C68.2668 59.1045 67.3714 60 66.2668 60H14.0002C12.8956 60 12.0002 59.1045 12.0002 58Z" fill="white"/>
<path fill-rule="evenodd" clip-rule="evenodd" d="M2.00017 52H12.0002H16.0002H54.2668C54.7347 52 55.1878 51.836 55.5472 51.5364C57.9515 49.5339 61.6756 44.7661 64.2668 38.6597C65.3558 36.6065 67.6803 31.6 68.2668 28V16H64.2668H16.0002H12.0002V18C12.0002 32.74 5.87417 44.0795 0.719767 48.4636C0.0728335 49.0027 -0.167033 49.8891 0.1195 50.6809C0.4063 51.4727 1.15803 52 2.00017 52ZM64.2314 19.9987H15.9659C15.6359 29.9576 12.7004 40.1625 6.54937 48H53.4826C58.9112 42.6684 63.7807 32.686 64.2314 19.9987Z" fill="white"/>
<path fill-rule="evenodd" clip-rule="evenodd" d="M2.00017 52H12.0002H16.0002H54.2668C54.7347 52 55.1878 51.836 55.5472 51.5364C57.9515 49.5339 61.6756 44.7661 64.2668 38.6597C65.3558 36.6065 67.6803 31.6 68.2668 28V16H64.2668H16.0002H12.0002V18C12.0002 32.74 5.87417 44.0795 0.719767 48.4636C0.0728335 49.0027 -0.167033 49.8891 0.1195 50.6809C0.4063 51.4727 1.15803 52 2.00017 52ZM64.2314 19.9987H15.9659C15.6359 29.9576 12.7004 40.1625 6.54937 48H53.4826C58.9112 42.6684 63.7807 32.686 64.2314 19.9987Z" fill="#FFC700"/>
<path d="M42.1335 4V2C42.1335 0.895467 41.238 0 40.1335 0C39.029 0 38.1335 0.895467 38.1335 2V4V8V10C38.1335 11.1045 39.029 12 40.1335 12C41.238 12 42.1335 11.1045 42.1335 10V8V4Z" fill="white"/>
<path d="M42.1335 4V2C42.1335 0.895467 41.238 0 40.1335 0C39.029 0 38.1335 0.895467 38.1335 2V4V8V10C38.1335 11.1045 39.029 12 40.1335 12C41.238 12 42.1335 11.1045 42.1335 10V8V4Z" fill="#FFC700"/>
<path fill-rule="evenodd" clip-rule="evenodd" d="M12.0002 6V16H16.0002V8H24.1335V4H14.0002C12.8956 4 12.0002 4.89547 12.0002 6ZM28.1335 4V8H38.1335V4H28.1335ZM52.2668 8H42.1335V4H52.2668V8ZM56.2668 8H64.2668V16H68.2668V6C68.2668 4.89547 67.3714 4 66.2668 4H56.2668V8Z" fill="white"/>
<path d="M56.2668 4V2C56.2668 0.895467 55.3714 0 54.2668 0C53.1623 0 52.2668 0.895467 52.2668 2V4V8V10C52.2668 11.1045 53.1623 12 54.2668 12C55.3714 12 56.2668 11.1045 56.2668 10V8V4Z" fill="white"/>
<path d="M56.2668 4V2C56.2668 0.895467 55.3714 0 54.2668 0C53.1623 0 52.2668 0.895467 52.2668 2V4V8V10C52.2668 11.1045 53.1623 12 54.2668 12C55.3714 12 56.2668 11.1045 56.2668 10V8V4Z" fill="#FFC700"/>
<path d="M28.1335 4V2C28.1335 0.895467 27.238 0 26.1335 0C25.029 0 24.1335 0.895467 24.1335 2V4V8V10C24.1335 11.1045 25.029 12 26.1335 12C27.238 12 28.1335 11.1045 28.1335 10V8V4Z" fill="white"/>
<path d="M28.1335 4V2C28.1335 0.895467 27.238 0 26.1335 0C25.029 0 24.1335 0.895467 24.1335 2V4V8V10C24.1335 11.1045 25.029 12 26.1335 12C27.238 12 28.1335 11.1045 28.1335 10V8V4Z" fill="#FFC700"/>
</svg>
