<svg width="22" height="18" viewBox="0 0 22 18" fill="none" xmlns="http://www.w3.org/2000/svg">
<path d="M20.9467 0.492795C20.6869 0.174978 20.2976 0 19.8506 0C19.6076 0 19.3502 0.0511299 19.0856 0.152253L1.07652 7.02687C0.120797 7.3916 -0.00792014 7.93893 0.000358025 8.23273C0.00863619 8.52652 0.168194 9.06574 1.14307 9.37593C1.14891 9.37771 1.15476 9.3795 1.1606 9.38112L4.89617 10.4501L6.91637 16.227C7.19182 17.0146 7.81009 17.5038 8.53013 17.5038C8.98413 17.5038 9.43066 17.3136 9.82152 16.9539L12.1321 14.8264L15.4835 17.5249C15.4838 17.5252 15.4843 17.5254 15.4846 17.5257L15.5164 17.5514C15.5193 17.5536 15.5224 17.5561 15.5253 17.5583C15.8979 17.8473 16.3045 17.9998 16.7017 18H16.7018C17.4779 18 18.0958 17.4256 18.2758 16.5367L21.2266 1.96647C21.3451 1.38164 21.2457 0.858333 20.9467 0.492795ZM6.14585 10.2471L13.3529 6.56524L8.86531 11.3336C8.79178 11.4117 8.73968 11.5073 8.71403 11.6114L7.84872 15.1164L6.14585 10.2471ZM8.97698 16.0368C8.94712 16.0642 8.91709 16.0887 8.88706 16.1113L9.68988 12.8597L11.1502 14.0357L8.97698 16.0368ZM20.0048 1.71894L17.054 16.2893C17.0256 16.4288 16.9349 16.7532 16.7017 16.7532C16.5864 16.7532 16.4416 16.6904 16.2934 16.5763L12.4959 13.5186C12.4954 13.5181 12.4947 13.5176 12.4941 13.5173L10.2345 11.6977L16.7241 4.80199C16.9318 4.58124 16.9507 4.24313 16.7687 4.00063C16.5866 3.75813 16.2566 3.68184 15.9867 3.81981L5.313 9.27269L1.52663 8.18939L19.5302 1.31688C19.6823 1.25877 19.7884 1.2466 19.8506 1.2466C19.8888 1.2466 19.9566 1.25114 19.9818 1.28214C20.0149 1.32256 20.0571 1.46037 20.0048 1.71894Z" fill="#141414"/>
</svg>
