<svg width="60" height="60" viewBox="0 0 60 60" fill="none" xmlns="http://www.w3.org/2000/svg">
<path d="M47.3748 37.1677C46.1465 35.8887 44.6649 35.2049 43.0946 35.2049C41.5371 35.2049 40.0428 35.8761 38.7638 37.1551L34.7622 41.144C34.4329 40.9667 34.1037 40.8021 33.7871 40.6375C33.3312 40.4095 32.9007 40.1942 32.5335 39.9663C28.7851 37.5856 25.3787 34.4831 22.1116 30.4688C20.5287 28.468 19.4649 26.7838 18.6925 25.0743C19.7309 24.1245 20.6933 23.1368 21.6304 22.187C21.9849 21.8325 22.3395 21.4652 22.6941 21.1107C25.3534 18.4514 25.3534 15.007 22.6941 12.3477L19.237 8.89059C18.8444 8.49803 18.4392 8.0928 18.0593 7.68758C17.2995 6.90246 16.5017 6.092 15.6786 5.33221C14.4503 4.11653 12.9813 3.4707 11.4364 3.4707C9.89149 3.4707 8.39722 4.11653 7.13089 5.33221C7.11823 5.34487 7.11823 5.34487 7.10556 5.35753L2.80004 9.70104C1.17914 11.3219 0.25472 13.2974 0.0521076 15.5895C-0.251811 19.2872 0.837232 22.7316 1.67301 24.9856C3.72446 30.5195 6.78898 35.6481 11.3604 41.144C16.9069 47.7669 23.5805 52.9968 31.2038 56.6819C34.1164 58.0621 38.004 59.6957 42.3475 59.9743C42.6134 59.987 42.892 59.9996 43.1453 59.9996C46.0705 59.9996 48.5272 58.9486 50.452 56.8591C50.4647 56.8338 50.49 56.8212 50.5027 56.7958C51.1612 55.998 51.921 55.2762 52.7187 54.5038C53.2633 53.9846 53.8204 53.4401 54.365 52.8702C55.6186 51.5659 56.2771 50.0463 56.2771 48.4887C56.2771 46.9185 55.606 45.4115 54.327 44.1452L47.3748 37.1677ZM51.9083 50.5022C51.8956 50.5022 51.8956 50.5148 51.9083 50.5022C51.4144 51.034 50.9079 51.5152 50.3634 52.0471C49.5403 52.8322 48.7045 53.6553 47.9194 54.5797C46.6404 55.9474 45.1334 56.5932 43.158 56.5932C42.968 56.5932 42.7654 56.5932 42.5754 56.5805C38.8144 56.3399 35.3194 54.871 32.6981 53.6173C25.5307 50.1476 19.237 45.2216 14.0071 38.9786C9.68887 33.774 6.80164 28.9619 4.88949 23.7953C3.7118 20.6421 3.28125 18.1854 3.4712 15.8681C3.59783 14.3865 4.16768 13.1581 5.21873 12.1071L9.53691 7.78889C10.1574 7.20637 10.8159 6.88979 11.4617 6.88979C12.2595 6.88979 12.9054 7.371 13.3106 7.77622C13.3232 7.78889 13.3359 7.80155 13.3486 7.81421C14.121 8.53602 14.8555 9.28315 15.628 10.0809C16.0205 10.4862 16.4257 10.8914 16.831 11.3093L20.288 14.7664C21.6304 16.1087 21.6304 17.3497 20.288 18.692C19.9208 19.0592 19.5662 19.4264 19.199 19.781C18.1353 20.8701 17.1222 21.8831 16.0205 22.8709C15.9952 22.8962 15.9699 22.9089 15.9572 22.9342C14.8682 24.0232 15.0708 25.0869 15.2987 25.8087C15.3114 25.8467 15.324 25.8847 15.3367 25.9227C16.2358 28.1008 17.5021 30.1523 19.4269 32.5963L19.4396 32.6089C22.9347 36.9145 26.6197 40.2702 30.6846 42.8409C31.2038 43.1701 31.7357 43.4361 32.2422 43.6893C32.6981 43.9173 33.1286 44.1325 33.4959 44.3605C33.5465 44.3858 33.5972 44.4238 33.6478 44.4491C34.0784 44.6644 34.4836 44.7657 34.9015 44.7657C35.9525 44.7657 36.611 44.1072 36.8263 43.8919L41.1572 39.5611C41.5877 39.1305 42.2715 38.6113 43.0693 38.6113C43.8544 38.6113 44.5003 39.1052 44.8928 39.5358C44.9055 39.5484 44.9055 39.5484 44.9182 39.5611L51.8956 46.5386C53.1999 47.8302 53.2 49.1599 51.9083 50.5022Z" fill="white"/>
<path d="M32.3813 14.2722C35.6991 14.8294 38.7129 16.3996 41.119 18.8056C43.525 21.2117 45.0826 24.2255 45.6524 27.5433C45.7917 28.3791 46.5135 28.9616 47.3366 28.9616C47.438 28.9616 47.5266 28.9489 47.6279 28.9363C48.565 28.7843 49.1855 27.8979 49.0335 26.9608C48.3497 22.9465 46.4502 19.2868 43.5503 16.387C40.6504 13.4871 36.9907 11.5876 32.9765 10.9037C32.0394 10.7518 31.1656 11.3723 31.001 12.2967C30.8364 13.2211 31.4442 14.1202 32.3813 14.2722Z" fill="white"/>
<path d="M32.3813 14.2722C35.6991 14.8294 38.7129 16.3996 41.119 18.8056C43.525 21.2117 45.0826 24.2255 45.6524 27.5433C45.7917 28.3791 46.5135 28.9616 47.3366 28.9616C47.438 28.9616 47.5266 28.9489 47.6279 28.9363C48.565 28.7843 49.1855 27.8979 49.0335 26.9608C48.3497 22.9465 46.4502 19.2868 43.5503 16.387C40.6504 13.4871 36.9907 11.5876 32.9765 10.9037C32.0394 10.7518 31.1656 11.3723 31.001 12.2967C30.8364 13.2211 31.4442 14.1202 32.3813 14.2722Z" fill="#FFC700"/>
<path d="M59.8864 26.467C58.7593 19.8568 55.6442 13.8417 50.8574 9.05499C46.0707 4.26827 40.0556 1.1531 33.4454 0.0260629C32.521 -0.13856 31.6472 0.494605 31.4826 1.41903C31.3306 2.35611 31.9511 3.22988 32.8882 3.3945C38.7893 4.3949 44.1712 7.19349 48.4514 11.461C52.7316 15.7412 55.5175 21.1231 56.5179 27.0242C56.6572 27.86 57.379 28.4425 58.2021 28.4425C58.3034 28.4425 58.3921 28.4298 58.4934 28.4172C59.4178 28.2779 60.051 27.3914 59.8864 26.467Z" fill="white"/>
<path d="M59.8864 26.467C58.7593 19.8568 55.6442 13.8417 50.8574 9.05499C46.0707 4.26827 40.0556 1.1531 33.4454 0.0260629C32.521 -0.13856 31.6472 0.494605 31.4826 1.41903C31.3306 2.35611 31.9511 3.22988 32.8882 3.3945C38.7893 4.3949 44.1712 7.19349 48.4514 11.461C52.7316 15.7412 55.5175 21.1231 56.5179 27.0242C56.6572 27.86 57.379 28.4425 58.2021 28.4425C58.3034 28.4425 58.3921 28.4298 58.4934 28.4172C59.4178 28.2779 60.051 27.3914 59.8864 26.467Z" fill="#FFC700"/>
</svg>
