<svg width="15" height="15" viewBox="0 0 15 15" fill="none" xmlns="http://www.w3.org/2000/svg">
<path d="M12.9877 12.3248L10.1897 9.52687C10.8516 8.71875 11.25 7.68656 11.25 6.5625C11.25 3.97781 9.14719 1.875 6.5625 1.875C3.97781 1.875 1.875 3.97781 1.875 6.5625C1.875 9.14719 3.97781 11.25 6.5625 11.25C7.68656 11.25 8.71875 10.8516 9.52687 10.1897L12.3248 12.9877C12.5081 13.1709 12.8044 13.1709 12.9877 12.9877C13.1709 12.8044 13.1709 12.5081 12.9877 12.3248ZM2.8125 6.5625C2.8125 4.49484 4.49484 2.8125 6.5625 2.8125C8.63016 2.8125 10.3125 4.49484 10.3125 6.5625C10.3125 8.63016 8.63016 10.3125 6.5625 10.3125C4.49484 10.3125 2.8125 8.63016 2.8125 6.5625Z" fill="#FFC700"/>
</svg>
