<svg width="21" height="21" viewBox="0 0 21 21" fill="none" xmlns="http://www.w3.org/2000/svg">
<path d="M14.25 21H6.75C4.95979 21 3.2429 20.2888 1.97703 19.023C0.711159 17.7571 0 16.0402 0 14.25V6.75C0 4.95979 0.711159 3.2429 1.97703 1.97703C3.2429 0.711159 4.95979 0 6.75 0H14.25C16.0402 0 17.7571 0.711159 19.023 1.97703C20.2888 3.2429 21 4.95979 21 6.75V14.25C21 16.0402 20.2888 17.7571 19.023 19.023C17.7571 20.2888 16.0402 21 14.25 21ZM6.75 1.5C5.35761 1.5 4.02226 2.05312 3.03769 3.03769C2.05312 4.02226 1.5 5.35761 1.5 6.75V14.25C1.5 15.6424 2.05312 16.9777 3.03769 17.9623C4.02226 18.9469 5.35761 19.5 6.75 19.5H14.25C15.6424 19.5 16.9777 18.9469 17.9623 17.9623C18.9469 16.9777 19.5 15.6424 19.5 14.25V6.75C19.5 5.35761 18.9469 4.02226 17.9623 3.03769C16.9777 2.05312 15.6424 1.5 14.25 1.5H6.75Z" fill="black"/>
<path d="M10.4995 15.75C9.72183 15.7564 8.95272 15.5872 8.24952 15.255C8.07327 15.1682 7.93813 15.0156 7.87316 14.8302C7.80819 14.6448 7.81858 14.4413 7.9021 14.2634C7.98562 14.0856 8.1356 13.9476 8.31978 13.8792C8.50396 13.8107 8.70764 13.8173 8.88702 13.8975C9.70091 14.2736 10.6226 14.3457 11.4851 14.1006C12.3475 13.8556 13.0937 13.3096 13.5882 12.5618C14.0827 11.8139 14.2929 10.9136 14.1807 10.024C14.0684 9.13447 13.6412 8.31458 12.9764 7.71296C12.3116 7.11135 11.4533 6.76783 10.557 6.74467C9.66069 6.72152 8.78577 7.02027 8.09081 7.58676C7.39585 8.15325 6.92685 8.94999 6.76885 9.83256C6.61084 10.7151 6.77427 11.6251 7.22952 12.3975C7.28379 12.4829 7.32022 12.5783 7.33664 12.6781C7.35306 12.7779 7.34912 12.88 7.32505 12.9783C7.30099 13.0765 7.2573 13.1689 7.19661 13.2498C7.13592 13.3308 7.05949 13.3986 6.97192 13.4492C6.88435 13.4998 6.78744 13.5322 6.68702 13.5444C6.58661 13.5566 6.48477 13.5483 6.38762 13.5202C6.29047 13.492 6.20003 13.4444 6.12174 13.3804C6.04344 13.3163 5.97891 13.2371 5.93202 13.1475C5.47233 12.3417 5.23667 11.4276 5.24952 10.5C5.24952 9.46165 5.55743 8.44662 6.13431 7.58326C6.71118 6.7199 7.53112 6.04699 8.49043 5.64963C9.44975 5.25227 10.5053 5.14831 11.5237 5.35088C12.5421 5.55345 13.4776 6.05347 14.2118 6.78769C14.9461 7.52192 15.4461 8.45738 15.6486 9.47578C15.8512 10.4942 15.7473 11.5498 15.3499 12.5091C14.9525 13.4684 14.2796 14.2883 13.4163 14.8652C12.5529 15.4421 11.5379 15.75 10.4995 15.75Z" fill="black"/>
<path d="M16.125 6.00098C16.7463 6.00098 17.25 5.4973 17.25 4.87598C17.25 4.25466 16.7463 3.75098 16.125 3.75098C15.5037 3.75098 15 4.25466 15 4.87598C15 5.4973 15.5037 6.00098 16.125 6.00098Z" fill="black"/>
</svg>
