<?xml version="1.0" encoding="utf-8"?><svg viewBox="0 0 69 60" xmlns="http://www.w3.org/2000/svg" xmlns:xlink="http://www.w3.org/1999/xlink"><style>:root>svg{display:none}:root>svg:target{display:block}</style><svg fill="none" viewBox="0 0 10 7" id="icon-arrow-down" xmlns="http://www.w3.org/2000/svg"><path d="m1 1 4 5 4-5" stroke="#000"/></svg><svg fill="none" viewBox="0 0 16 26" id="icon-arrow-right" xmlns="http://www.w3.org/2000/svg"><path d="m1 1 13 12L1 25" stroke="#fff" stroke-width="2"/></svg><svg fill="none" viewBox="0 0 25 25" id="icon-cart" xmlns="http://www.w3.org/2000/svg"><g clip-path="url(#ca)"><path fill-rule="evenodd" clip-rule="evenodd" d="m8.759 16.912-.634-.662-.505-.942L5.335 2.863a.802.802 0 0 0-.496-.601L1.096.792a.803.803 0 0 0-.587 1.492l3.328 1.308 2.326 12.663c.07.38.402.657.79.657h.385l-.881 2.447a.667.667 0 0 0 .629.895h.618a2.392 2.392 0 0 0-.618 1.604 2.41 2.41 0 0 0 2.406 2.406 2.41 2.41 0 0 0 2.406-2.406c0-.617-.234-1.178-.617-1.604h5.246a2.392 2.392 0 0 0-.618 1.604 2.409 2.409 0 0 0 2.406 2.406 2.409 2.409 0 0 0 2.407-2.406c0-.617-.235-1.178-.618-1.604h.752a.668.668 0 1 0 0-1.337H8.036l.723-2.005Zm-.336 4.946a1.07 1.07 0 0 0 2.139 0 1.07 1.07 0 0 0-2.14 0Zm8.823 0a1.07 1.07 0 0 0 2.139 0 1.07 1.07 0 0 0-2.139 0Z" fill="#fff"/><path d="M24.856 5.223a.802.802 0 0 0-.624-.342L8.724 4.212a.802.802 0 1 0-.069 1.603l14.458.623-2.842 8.87H7.62l.504.942.634.662h12.096a.802.802 0 0 0 .764-.558l3.343-10.427a.8.8 0 0 0-.106-.704Z" fill="#FFC700"/></g><defs><clipPath id="ca"><path fill="#fff" d="M0 0h25v25H0z"/></clipPath></defs></svg><svg fill="none" viewBox="0 0 14 12" id="icon-check" xmlns="http://www.w3.org/2000/svg"><path d="m1 4.5 3.5 5 8-8.5" stroke="#FFC700" stroke-width="2"/></svg><svg fill="none" viewBox="0 0 17 17" id="icon-close" xmlns="http://www.w3.org/2000/svg"><path d="m1 1 14.5 14.5M15.5 1 1 15.5" stroke="#000" stroke-width="2"/></svg><svg fill="none" viewBox="0 0 69 60" id="icon-group" xmlns="http://www.w3.org/2000/svg"><path fill-rule="evenodd" clip-rule="evenodd" d="M12 58v-6h4v4h48.267V38.66c1.089-2.053 3.413-7.06 4-10.66v30a2 2 0 0 1-2 2H14a2 2 0 0 1-2-2Z" fill="#fff"/><path fill-rule="evenodd" clip-rule="evenodd" d="M2 52h52.267a2 2 0 0 0 1.28-.464c2.405-2.002 6.129-6.77 8.72-12.876 1.089-2.053 3.413-7.06 4-10.66V16H12v2C12 32.74 5.874 44.08.72 48.464A2 2 0 0 0 2 52Zm62.231-32.001H15.966C15.636 29.958 12.7 40.163 6.549 48h46.934C58.91 42.668 63.78 32.686 64.23 19.999Z" fill="#fff"/><path fill-rule="evenodd" clip-rule="evenodd" d="M2 52h52.267a2 2 0 0 0 1.28-.464c2.405-2.002 6.129-6.77 8.72-12.876 1.089-2.053 3.413-7.06 4-10.66V16H12v2C12 32.74 5.874 44.08.72 48.464A2 2 0 0 0 2 52Zm62.231-32.001H15.966C15.636 29.958 12.7 40.163 6.549 48h46.934C58.91 42.668 63.78 32.686 64.23 19.999Z" fill="#FFC700"/><path d="M42.133 4V2a2 2 0 0 0-4 0v8a2 2 0 0 0 4 0V4Z" fill="#fff"/><path d="M42.133 4V2a2 2 0 0 0-4 0v8a2 2 0 0 0 4 0V4Z" fill="#FFC700"/><path fill-rule="evenodd" clip-rule="evenodd" d="M12 6v10h4V8h8.134V4H14a2 2 0 0 0-2 2Zm16.134-2v4h10V4h-10Zm24.133 4H42.133V4h10.134v4Zm4 0h8v8h4V6a2 2 0 0 0-2-2h-10v4Z" fill="#fff"/><path d="M56.267 4V2a2 2 0 0 0-4 0v8a2 2 0 0 0 4 0V4Z" fill="#fff"/><path d="M56.267 4V2a2 2 0 0 0-4 0v8a2 2 0 0 0 4 0V4Z" fill="#FFC700"/><path d="M28.134 4V2a2 2 0 0 0-4 0v8a2 2 0 0 0 4 0V4Z" fill="#fff"/><path d="M28.134 4V2a2 2 0 0 0-4 0v8a2 2 0 0 0 4 0V4Z" fill="#FFC700"/></svg><svg fill="none" viewBox="0 0 40 35" id="icon-hart" xmlns="http://www.w3.org/2000/svg"><path fill-rule="evenodd" clip-rule="evenodd" d="M23.84.953A11.626 11.626 0 0 1 28.438 0a11.602 11.602 0 0 1 8.172 3.375A11.496 11.496 0 0 1 40 11.51c0 11.46-18.569 22.71-19.337 23.151a1.254 1.254 0 0 1-.644.178L20 32.129c3.231-2.06 17.5-11.653 17.5-20.619a8.994 8.994 0 0 0-1.752-5.333 9.061 9.061 0 0 0-4.58-3.27 9.102 9.102 0 0 0-5.637.057 9.058 9.058 0 0 0-4.512 3.363 1.249 1.249 0 0 1-1.022.528L20 3.645A11.581 11.581 0 0 1 23.84.954Z" fill="#fff"/><path d="M20 3.646a11.575 11.575 0 0 0-5.904-3.36A11.612 11.612 0 0 0 7.315.81 11.553 11.553 0 0 0 2.004 5.04 11.473 11.473 0 0 0 0 11.51c0 11.46 18.569 22.71 19.375 23.151.194.116.417.178.644.178L20 32.129C16.769 30.076 2.5 20.482 2.5 11.51a8.994 8.994 0 0 1 1.755-5.328 9.061 9.061 0 0 1 4.577-3.267 9.102 9.102 0 0 1 5.632.056 9.059 9.059 0 0 1 4.511 3.356 1.248 1.248 0 0 0 1.022.528L20 3.645Z" fill="#fff"/></svg><svg fill="none" viewBox="0 0 21 21" id="icon-instagram" xmlns="http://www.w3.org/2000/svg"><path d="M14.25 21h-7.5A6.75 6.75 0 0 1 0 14.25v-7.5A6.75 6.75 0 0 1 6.75 0h7.5A6.75 6.75 0 0 1 21 6.75v7.5A6.75 6.75 0 0 1 14.25 21ZM6.75 1.5A5.25 5.25 0 0 0 1.5 6.75v7.5a5.25 5.25 0 0 0 5.25 5.25h7.5a5.25 5.25 0 0 0 5.25-5.25v-7.5a5.25 5.25 0 0 0-5.25-5.25h-7.5Z" fill="#000"/><path d="M10.5 15.75a5.168 5.168 0 0 1-2.25-.495.75.75 0 0 1 .637-1.357 3.75 3.75 0 1 0-1.657-1.5.75.75 0 1 1-1.298.75A5.198 5.198 0 0 1 5.25 10.5a5.25 5.25 0 1 1 5.25 5.25ZM16.125 6.001a1.125 1.125 0 1 0 0-2.25 1.125 1.125 0 0 0 0 2.25Z" fill="#000"/></svg><svg fill="none" viewBox="0 0 25 25" id="icon-like" xmlns="http://www.w3.org/2000/svg"><g clip-path="url(#ia)"><path fill-rule="evenodd" clip-rule="evenodd" d="M14.9 2.161a7.238 7.238 0 0 1 2.873-.599A7.234 7.234 0 0 1 25 8.79c0 7.195-11.605 14.258-12.086 14.535a.781.781 0 0 1-.402.112l-.012-1.702c2.02-1.293 10.938-7.316 10.938-12.945a5.663 5.663 0 0 0-10.301-3.254.782.782 0 0 1-.639.331l.002-2.014a7.238 7.238 0 0 1 2.4-1.691Z" fill="#fff"/><path d="M12.5 3.852A7.227 7.227 0 0 0 0 8.789c0 7.195 11.605 14.258 12.11 14.535.12.073.26.112.402.112l-.012-1.702C10.48 20.445 1.562 14.422 1.562 8.79A5.664 5.664 0 0 1 11.86 5.535a.782.782 0 0 0 .639.331l.002-2.014Z" fill="#FFC700"/></g><defs><clipPath id="ia"><path fill="#fff" d="M0 0h25v25H0z"/></clipPath></defs></svg><svg fill="none" viewBox="0 0 15 15" id="icon-lupa" xmlns="http://www.w3.org/2000/svg"><path d="M12.988 12.325 10.19 9.527a4.664 4.664 0 0 0 1.06-2.964 4.693 4.693 0 0 0-4.688-4.688 4.693 4.693 0 0 0-4.687 4.688 4.693 4.693 0 0 0 4.688 4.687 4.664 4.664 0 0 0 2.964-1.06l2.798 2.798a.468.468 0 1 0 .663-.663ZM2.813 6.563a3.754 3.754 0 0 1 3.75-3.75 3.754 3.754 0 0 1 3.75 3.75 3.754 3.754 0 0 1-3.75 3.75 3.754 3.754 0 0 1-3.75-3.75Z" fill="#FFC700"/></svg><svg fill="none" viewBox="0 0 53 60" id="icon-map" xmlns="http://www.w3.org/2000/svg"><path fill-rule="evenodd" clip-rule="evenodd" d="m36.384 39.643-2.078 3.26c10.276 1.277 14.913 4.556 14.913 6.55 0 2.942-8.943 7.031-22.852 7.031-13.827 0-22.851-4.064-22.851-7.03 0-1.995 4.636-5.274 14.911-6.552l-2.077-3.26C10.295 40.574 0 43.348 0 49.454c0 2.226 1.453 5.398 8.374 7.87C13.207 59.05 19.597 60 26.367 60c12.66 0 26.367-3.57 26.367-10.547 0-6.107-10.282-8.878-16.35-9.81Z" fill="#fff"/><path fill-rule="evenodd" clip-rule="evenodd" d="M36.384 39.643c6.385-10.019 5.582-8.769 5.766-9.03a19.192 19.192 0 0 0 3.553-11.16C45.703 8.787 37.047 0 26.367 0 15.722 0 7.031 8.77 7.031 19.453c0 4.02 1.255 7.98 3.655 11.302l5.664 8.888 2.077 3.26 6.458 10.132a1.758 1.758 0 0 0 2.964 0l6.457-10.133 2.078-3.26Zm-22.822-10.91c.021.029.042.058.06.089l12.745 19.997C40.013 27.406 39.13 28.779 39.3 28.555a15.695 15.695 0 0 0 2.889-9.102c0-8.788-7.098-15.937-15.82-15.937-8.742 0-15.821 7.146-15.821 15.937 0 3.274 1.018 6.532 3.015 9.28Z" fill="#fff"/><path fill-rule="evenodd" clip-rule="evenodd" d="M36.384 39.643c6.385-10.019 5.582-8.769 5.766-9.03a19.192 19.192 0 0 0 3.553-11.16C45.703 8.787 37.047 0 26.367 0 15.722 0 7.031 8.77 7.031 19.453c0 4.02 1.255 7.98 3.655 11.302l5.664 8.888 2.077 3.26 6.458 10.132a1.758 1.758 0 0 0 2.964 0l6.457-10.133 2.078-3.26Zm-22.822-10.91c.021.029.042.058.06.089l12.745 19.997C40.013 27.406 39.13 28.779 39.3 28.555a15.695 15.695 0 0 0 2.889-9.102c0-8.788-7.098-15.937-15.82-15.937-8.742 0-15.821 7.146-15.821 15.937 0 3.274 1.018 6.532 3.015 9.28Z" fill="#FFC700"/><path d="M26.367 10.664c-4.846 0-8.789 3.943-8.789 8.79 0 4.845 3.943 8.788 8.79 8.788 4.846 0 8.788-3.943 8.788-8.789s-3.942-8.789-8.789-8.789Zm0 14.063a5.28 5.28 0 0 1-5.273-5.274 5.28 5.28 0 0 1 5.273-5.273 5.28 5.28 0 0 1 5.274 5.273 5.28 5.28 0 0 1-5.274 5.274Z" fill="#fff"/></svg><svg fill="none" viewBox="0 0 60 60" id="icon-phon" xmlns="http://www.w3.org/2000/svg"><path d="M47.375 37.168c-1.228-1.28-2.71-1.963-4.28-1.963-1.558 0-3.052.671-4.331 1.95l-4.002 3.989c-.33-.177-.658-.342-.975-.506a16.113 16.113 0 0 1-1.254-.672c-3.748-2.38-7.154-5.483-10.421-9.497-1.583-2.001-2.647-3.685-3.42-5.395 1.039-.95 2.001-1.937 2.938-2.887.355-.355.71-.722 1.064-1.076 2.66-2.66 2.66-6.104 0-8.763L19.237 8.89a52.69 52.69 0 0 1-1.178-1.203 59.8 59.8 0 0 0-2.38-2.356c-1.229-1.215-2.698-1.861-4.243-1.861-1.545 0-3.039.646-4.305 1.861l-.025.026L2.8 9.7C1.18 11.321.255 13.297.052 15.589c-.304 3.698.785 7.143 1.621 9.397 2.051 5.534 5.116 10.662 9.687 16.158 5.547 6.623 12.22 11.853 19.844 15.538 2.912 1.38 6.8 3.014 11.143 3.292.266.013.545.026.798.026 2.925 0 5.382-1.051 7.307-3.14.013-.026.038-.039.05-.064.66-.798 1.419-1.52 2.217-2.292a49.82 49.82 0 0 0 1.646-1.634c1.254-1.304 1.912-2.824 1.912-4.381 0-1.57-.671-3.078-1.95-4.344l-6.952-6.977Zm4.533 13.334c-.012 0-.012.013 0 0-.494.532-1 1.013-1.545 1.545-.823.785-1.658 1.608-2.444 2.533-1.279 1.367-2.786 2.013-4.761 2.013-.19 0-.393 0-.583-.013-3.76-.24-7.256-1.709-9.877-2.963-7.167-3.47-13.461-8.395-18.69-14.638-4.32-5.205-7.206-10.017-9.119-15.184-1.177-3.153-1.608-5.61-1.418-7.927.127-1.482.697-2.71 1.748-3.76l4.318-4.32c.62-.582 1.279-.898 1.925-.898.797 0 1.443.481 1.849.886l.038.038a64.052 64.052 0 0 1 2.279 2.267c.392.405.798.81 1.203 1.228l3.457 3.457c1.342 1.343 1.342 2.584 0 3.926-.367.367-.722.734-1.089 1.089-1.064 1.09-2.077 2.102-3.179 3.09-.025.025-.05.038-.063.063-1.089 1.09-.886 2.153-.658 2.875l.038.114c.899 2.178 2.165 4.23 4.09 6.673l.013.013c3.495 4.305 7.18 7.661 11.245 10.232.519.33 1.05.595 1.557.848.456.228.887.444 1.254.672.05.025.101.063.152.088.43.215.836.317 1.253.317 1.051 0 1.71-.659 1.925-.874l4.331-4.33c.43-.431 1.115-.95 1.912-.95.785 0 1.431.493 1.824.924l.025.025 6.978 6.978c1.304 1.291 1.304 2.62.012 3.963ZM32.381 14.272c3.318.557 6.332 2.128 8.738 4.534a16.142 16.142 0 0 1 4.533 8.737 1.7 1.7 0 0 0 1.685 1.419c.101 0 .19-.013.29-.026a1.711 1.711 0 0 0 1.406-1.975 19.53 19.53 0 0 0-5.483-10.574c-2.9-2.9-6.56-4.8-10.573-5.483A1.719 1.719 0 0 0 31 12.297c-.165.924.443 1.823 1.38 1.975Z" fill="#fff"/><path d="M32.381 14.272c3.318.557 6.332 2.128 8.738 4.534a16.142 16.142 0 0 1 4.533 8.737 1.7 1.7 0 0 0 1.685 1.419c.101 0 .19-.013.29-.026a1.711 1.711 0 0 0 1.406-1.975 19.53 19.53 0 0 0-5.483-10.574c-2.9-2.9-6.56-4.8-10.573-5.483A1.719 1.719 0 0 0 31 12.297c-.165.924.443 1.823 1.38 1.975Z" fill="#FFC700"/><path d="M59.886 26.467c-1.127-6.61-4.242-12.625-9.029-17.412C46.071 4.268 40.056 1.153 33.445.026c-.924-.165-1.798.469-1.962 1.393a1.718 1.718 0 0 0 1.405 1.975c5.901 1 11.283 3.8 15.563 8.067 4.28 4.28 7.066 9.662 8.067 15.563a1.7 1.7 0 0 0 1.684 1.418c.101 0 .19-.012.291-.025a1.678 1.678 0 0 0 1.393-1.95Z" fill="#fff"/><path d="M59.886 26.467c-1.127-6.61-4.242-12.625-9.029-17.412C46.071 4.268 40.056 1.153 33.445.026c-.924-.165-1.798.469-1.962 1.393a1.718 1.718 0 0 0 1.405 1.975c5.901 1 11.283 3.8 15.563 8.067 4.28 4.28 7.066 9.662 8.067 15.563a1.7 1.7 0 0 0 1.684 1.418c.101 0 .19-.012.291-.025a1.678 1.678 0 0 0 1.393-1.95Z" fill="#FFC700"/></svg><svg fill="none" viewBox="0 0 22 18" id="icon-telegram" xmlns="http://www.w3.org/2000/svg"><path d="M20.947.493C20.687.175 20.297 0 19.85 0c-.243 0-.5.051-.765.152L1.076 7.027C.122 7.392-.007 7.939 0 8.233c.009.294.168.833 1.143 1.143l.018.005 3.735 1.07 2.02 5.776c.276.788.894 1.277 1.614 1.277.454 0 .9-.19 1.292-.55l2.31-2.128 3.351 2.699h.002l.031.026.01.007c.372.29.779.442 1.176.442.776 0 1.394-.574 1.574-1.463l2.95-14.57c.12-.585.02-1.109-.28-1.474ZM6.146 10.247l7.207-3.682-4.488 4.769a.622.622 0 0 0-.151.277l-.865 3.505-1.703-4.869Zm2.831 5.79c-.03.027-.06.052-.09.074l.803-3.251 1.46 1.176-2.173 2ZM20.005 1.719l-2.951 14.57c-.028.14-.12.464-.352.464-.116 0-.26-.063-.409-.177l-3.797-3.057-.002-.002-2.26-1.82 6.49-6.895a.623.623 0 0 0-.737-.982L5.313 9.273 1.527 8.189 19.53 1.317a.914.914 0 0 1 .32-.07c.039 0 .107.004.132.035.033.04.075.178.023.437Z" fill="#141414"/></svg><svg fill="none" viewBox="0 0 25 25" id="icon-viber_1" xmlns="http://www.w3.org/2000/svg"><path d="M14.594 10.236h-1.078c0-1.192-.424-1.616-1.617-1.616V7.542c1.786 0 2.695.91 2.695 2.694Z" fill="#000"/><path d="M16.749 10.235h-1.078c0-2.397-1.374-3.772-3.772-3.772V5.386c2.991 0 4.85 1.859 4.85 4.85Z" fill="#000"/><path d="M18.904 10.236h-1.077c0-3.543-2.385-5.928-5.928-5.928V3.23c4.19 0 7.005 2.816 7.005 7.005Z" fill="#000"/><path d="M6.511 25v-3.718l-1.152-.135c-2.755-.337-4.91-2.6-5.126-5.381a68.276 68.276 0 0 1-.188-4.991c0-1.664.067-3.341.188-4.991C.45 3.002 2.645.732 5.453.388a53.578 53.578 0 0 1 12.879 0c2.815.344 5.011 2.614 5.227 5.396.128 1.643.188 3.327.188 4.99 0 1.664-.067 3.348-.188 4.992-.21 2.775-2.365 5.038-5.113 5.381a53.24 53.24 0 0 1-5.799.398L6.511 25Zm5.388-23.925c-2.11 0-4.217.13-6.31.384-2.304.283-4.103 2.136-4.278 4.412a62.362 62.362 0 0 0-.188 4.904c0 1.636.06 3.293.188 4.91a4.81 4.81 0 0 0 4.183 4.398c.534.067 1.07.126 1.61.175l.491.047v2.856l4.77-2.687h.134a52.224 52.224 0 0 0 5.82-.39c2.242-.277 3.993-2.13 4.169-4.393.128-1.616.188-3.273.188-4.91s-.06-3.287-.188-4.91c-.176-2.276-1.974-4.129-4.284-4.412a52.394 52.394 0 0 0-6.305-.384Z" fill="#000"/><path d="M14.014 17.78h-.498c-5.052 0-9.16-4.109-9.16-9.16V8.12c-.003-.86.339-1.684.95-2.29l.444-.444c.693-.694 1.906-.694 2.6 0L9.744 6.78c.346.344.54.812.539 1.3a1.852 1.852 0 0 1-.539 1.3l-.128.128a1.408 1.408 0 0 0-.41.996c0 .374.148.732.41.997l1.01 1.01c.526.526 1.475.526 2 0l.129-.127c.693-.694 1.906-.694 2.6 0l1.394 1.4a1.839 1.839 0 0 1 0 2.6l-.445.445c-.605.61-1.43.953-2.29.95ZM7.05 5.925a.76.76 0 0 0-.54.223l-.444.444a2.143 2.143 0 0 0-.633 1.53v.498a8.09 8.09 0 0 0 8.083 8.082h.498c.572 0 1.12-.227 1.522-.633l.445-.444a.761.761 0 0 0 0-1.078l-1.387-1.394a.781.781 0 0 0-1.078 0l-.128.128a2.492 2.492 0 0 1-3.523 0l-1.01-1.01a2.504 2.504 0 0 1-.728-1.766c0-.659.261-1.291.728-1.757l.128-.128a.769.769 0 0 0 0-1.078L7.589 6.148a.76.76 0 0 0-.54-.223Z" fill="#000"/></svg></svg>