<?xml version="1.0" standalone="no"?>
<!DOCTYPE svg PUBLIC "-//W3C//DTD SVG 20010904//EN"
 "http://www.w3.org/TR/2001/REC-SVG-20010904/DTD/svg10.dtd">
<svg version="1.0" xmlns="http://www.w3.org/2000/svg"
 width="400.000000pt" height="400.000000pt" viewBox="0 0 400.000000 400.000000"
 preserveAspectRatio="xMidYMid meet">
<metadata>
Created by potrace 1.14, written by Peter Selinger 2001-2017
</metadata>
<g transform="translate(0.000000,400.000000) scale(0.100000,-0.100000)"
fill="#000000" stroke="none">
<path d="M1218 2672 c-19 -4 -24 -27 -8 -37 16 -10 38 8 31 25 -3 9 -14 14
-23 12z"/>
<path d="M2350 2666 c0 -12 25 -74 35 -86 7 -8 25 -55 40 -105 29 -97 38 -121
57 -147 23 -32 -4 -33 -30 -1 -23 28 -29 31 -44 19 -16 -12 -16 -15 8 -47 34
-46 10 -53 -27 -8 -16 19 -29 29 -29 22 0 -6 -7 -13 -15 -15 -13 -2 -11 -9 9
-37 34 -46 20 -63 -17 -20 -18 21 -31 29 -34 21 -3 -6 -9 -10 -14 -6 -16 9
-10 -12 11 -39 11 -14 20 -30 20 -36 0 -20 -18 -11 -43 21 -24 30 -26 30 -42
14 -17 -16 -16 -18 5 -41 14 -15 20 -30 16 -41 -6 -15 -11 -12 -33 19 -15 21
-29 34 -32 29 -3 -5 -12 -11 -19 -13 -9 -3 -5 -14 13 -39 17 -23 22 -37 15
-44 -9 -9 -19 -1 -52 48 -3 5 -13 2 -23 -7 -15 -16 -15 -19 4 -46 12 -16 21
-32 21 -35 0 -9 -30 -7 -30 2 -1 4 -9 18 -20 30 -18 22 -21 22 -35 8 -15 -14
-14 -18 6 -46 16 -20 20 -33 13 -40 -7 -7 -18 1 -35 24 -22 30 -26 33 -43 21
-17 -13 -17 -15 8 -48 36 -47 15 -61 -23 -16 -19 22 -30 29 -35 21 -4 -7 -11
-12 -15 -12 -9 0 -148 182 -158 205 -6 17 -73 88 -117 125 l-30 25 23 -39 c23
-41 22 -57 -4 -36 -13 11 -14 10 -9 -6 4 -10 -4 -5 -17 12 -13 17 -43 50 -66
73 -24 23 -61 66 -83 95 -33 43 -45 53 -66 50 -19 -2 -41 12 -93 62 -38 35
-71 64 -75 64 -3 0 13 -39 38 -87 30 -62 41 -94 36 -108 -9 -26 -4 -40 31 -78
16 -17 29 -34 29 -38 0 -8 57 -103 88 -147 13 -17 19 -32 13 -32 -6 0 -11 -8
-11 -17 0 -13 -7 -10 -30 12 -16 16 -30 24 -30 19 0 -13 80 -146 96 -159 22
-19 144 -195 144 -209 0 -7 9 -25 21 -40 32 -40 11 -56 -22 -16 -25 29 -29 31
-43 17 -14 -13 -13 -18 4 -40 11 -14 20 -30 20 -36 0 -20 -18 -12 -42 18 -20
26 -25 28 -40 17 -16 -12 -16 -15 8 -47 34 -46 10 -53 -28 -8 -15 18 -28 28
-28 22 0 -6 -7 -13 -16 -15 -14 -3 -13 -7 5 -30 25 -31 26 -38 7 -38 -8 0 -22
10 -30 21 -14 20 -16 20 -31 5 -9 -9 -14 -20 -10 -26 3 -5 -7 -9 -22 -9 -89 0
-377 -52 -425 -77 -97 -50 79 -102 462 -136 193 -17 908 -17 1095 0 325 30
485 66 485 108 0 37 -156 75 -397 97 l-133 11 -2 71 -2 70 -3 -67 -4 -68 -85
0 c-47 0 -84 4 -82 9 6 15 160 141 172 141 7 0 21 9 31 20 32 36 45 25 46 -37
l2 -58 11 68 c11 70 30 97 67 97 12 0 19 9 21 28 l4 27 13 -30 c8 -19 11 -52
7 -92 -3 -36 -1 -65 4 -68 6 -4 10 35 10 100 0 71 4 111 13 120 6 8 19 22 27
32 14 16 16 9 21 -72 l5 -90 2 103 c2 87 5 108 22 129 11 14 25 44 31 67 13
49 26 67 44 60 7 -3 16 -1 20 5 4 8 13 6 28 -4 31 -22 37 -19 26 14 -5 15 -9
32 -8 37 5 29 -3 44 -25 44 -19 0 -84 17 -94 25 -2 2 -11 57 -22 123 -15 99
-23 127 -47 160 -26 35 -31 38 -47 26 -17 -12 -17 -14 3 -42 39 -55 23 -71
-19 -20 -24 28 -29 30 -42 17 -15 -13 -14 -17 8 -46 15 -19 20 -34 14 -38 -13
-8 -47 31 -56 62 -4 13 -11 20 -20 16 -8 -3 -14 0 -14 5 0 6 -27 25 -61 43
-33 18 -68 42 -77 54 -26 32 -82 67 -82 51z m70 -71 c0 -8 -4 -15 -10 -15 -5
0 -10 7 -10 15 0 8 5 15 10 15 6 0 10 -7 10 -15z m-712 -376 c19 -31 -1 -48
-21 -18 -15 21 -15 39 1 39 4 0 13 -10 20 -21z m1125 -49 c-7 -28 -13 -25 -13
6 0 14 4 23 9 20 5 -3 7 -15 4 -26z m-1208 -50 c3 -5 1 -10 -4 -10 -6 0 -11 5
-11 10 0 6 2 10 4 10 3 0 8 -4 11 -10z m-99 -37 c18 -23 17 -33 -1 -33 -12 0
-35 28 -35 44 0 13 24 5 36 -11z"/>
</g>
</svg>
